<mxfile host="app.diagrams.net" modified="2022-08-22T09:39:18.964Z" agent="5.0 (Macintosh; Intel Mac OS X 10_15_7) AppleWebKit/537.36 (KHTML, like Gecko) Chrome/104.0.0.0 Safari/537.36" etag="hQBUOmKv1CM1MapKJkaJ" version="20.2.3" type="github" pages="4">
  <diagram id="TxUpOMJJKONMRMzJ9cgT" name="第 1 页">
    <mxGraphModel dx="1275" dy="721" grid="1" gridSize="10" guides="1" tooltips="1" connect="1" arrows="1" fold="1" page="1" pageScale="1" pageWidth="827" pageHeight="1169" math="0" shadow="0">
      <root>
        <mxCell id="0" />
        <mxCell id="1" parent="0" />
        <mxCell id="NUVWgExi74bJsqKRxpok-1" value="" style="endArrow=none;dashed=1;html=1;dashPattern=1 3;strokeWidth=2;rounded=0;" parent="1" edge="1">
          <mxGeometry width="50" height="50" relative="1" as="geometry">
            <mxPoint x="50" y="120" as="sourcePoint" />
            <mxPoint x="810" y="120" as="targetPoint" />
          </mxGeometry>
        </mxCell>
        <mxCell id="NUVWgExi74bJsqKRxpok-2" value="" style="rounded=0;whiteSpace=wrap;html=1;fillStyle=solid;fillColor=none;" parent="1" vertex="1">
          <mxGeometry x="80" y="155" width="160" height="255" as="geometry" />
        </mxCell>
        <mxCell id="NUVWgExi74bJsqKRxpok-4" value="header" style="rounded=0;whiteSpace=wrap;html=1;fillStyle=solid;fillColor=none;" parent="1" vertex="1">
          <mxGeometry x="80" y="155" width="160" height="35" as="geometry" />
        </mxCell>
        <mxCell id="NUVWgExi74bJsqKRxpok-6" value="data-card" style="rounded=0;whiteSpace=wrap;html=1;fillStyle=solid;fillColor=none;" parent="1" vertex="1">
          <mxGeometry x="95" y="205" width="130" height="55" as="geometry" />
        </mxCell>
        <mxCell id="NUVWgExi74bJsqKRxpok-74" style="edgeStyle=orthogonalEdgeStyle;rounded=0;orthogonalLoop=1;jettySize=auto;html=1;exitX=1;exitY=0.5;exitDx=0;exitDy=0;entryX=0;entryY=0.5;entryDx=0;entryDy=0;" parent="1" source="NUVWgExi74bJsqKRxpok-7" target="NUVWgExi74bJsqKRxpok-18" edge="1">
          <mxGeometry relative="1" as="geometry" />
        </mxCell>
        <mxCell id="NUVWgExi74bJsqKRxpok-7" value="tab-module" style="rounded=0;whiteSpace=wrap;html=1;fillStyle=solid;fillColor=none;" parent="1" vertex="1">
          <mxGeometry x="80" y="280" width="160" height="130" as="geometry" />
        </mxCell>
        <mxCell id="NUVWgExi74bJsqKRxpok-9" value="" style="endArrow=none;dashed=1;html=1;dashPattern=1 3;strokeWidth=2;rounded=0;" parent="1" edge="1">
          <mxGeometry width="50" height="50" relative="1" as="geometry">
            <mxPoint x="270" y="820" as="sourcePoint" />
            <mxPoint x="270" y="100" as="targetPoint" />
          </mxGeometry>
        </mxCell>
        <mxCell id="NUVWgExi74bJsqKRxpok-13" value="页面" style="text;html=1;strokeColor=none;fillColor=none;align=center;verticalAlign=middle;whiteSpace=wrap;rounded=0;fillStyle=solid;" parent="1" vertex="1">
          <mxGeometry x="130" y="80" width="60" height="30" as="geometry" />
        </mxCell>
        <mxCell id="NUVWgExi74bJsqKRxpok-16" value="子组件" style="text;html=1;strokeColor=none;fillColor=none;align=center;verticalAlign=middle;whiteSpace=wrap;rounded=0;fillStyle=solid;" parent="1" vertex="1">
          <mxGeometry x="390" y="80" width="60" height="30" as="geometry" />
        </mxCell>
        <mxCell id="NUVWgExi74bJsqKRxpok-17" value="" style="endArrow=none;dashed=1;html=1;dashPattern=1 3;strokeWidth=2;rounded=0;" parent="1" edge="1">
          <mxGeometry width="50" height="50" relative="1" as="geometry">
            <mxPoint x="650" y="830" as="sourcePoint" />
            <mxPoint x="650" y="100" as="targetPoint" />
          </mxGeometry>
        </mxCell>
        <mxCell id="NUVWgExi74bJsqKRxpok-18" value="" style="rounded=0;whiteSpace=wrap;html=1;fillStyle=solid;fillColor=none;" parent="1" vertex="1">
          <mxGeometry x="310" y="147.5" width="290" height="162.5" as="geometry" />
        </mxCell>
        <mxCell id="NUVWgExi74bJsqKRxpok-20" value="tab-module" style="text;html=1;strokeColor=none;fillColor=none;align=center;verticalAlign=middle;whiteSpace=wrap;rounded=0;fillStyle=solid;" parent="1" vertex="1">
          <mxGeometry x="385" y="125" width="70" height="22.5" as="geometry" />
        </mxCell>
        <mxCell id="NUVWgExi74bJsqKRxpok-64" style="edgeStyle=orthogonalEdgeStyle;rounded=0;orthogonalLoop=1;jettySize=auto;html=1;exitX=0.25;exitY=1;exitDx=0;exitDy=0;entryX=0.5;entryY=0;entryDx=0;entryDy=0;" parent="1" source="NUVWgExi74bJsqKRxpok-24" target="NUVWgExi74bJsqKRxpok-34" edge="1">
          <mxGeometry relative="1" as="geometry">
            <Array as="points">
              <mxPoint x="398" y="330" />
              <mxPoint x="365" y="330" />
            </Array>
          </mxGeometry>
        </mxCell>
        <mxCell id="NUVWgExi74bJsqKRxpok-65" style="edgeStyle=orthogonalEdgeStyle;rounded=0;orthogonalLoop=1;jettySize=auto;html=1;exitX=0.75;exitY=1;exitDx=0;exitDy=0;entryX=0.5;entryY=0;entryDx=0;entryDy=0;" parent="1" source="NUVWgExi74bJsqKRxpok-24" target="NUVWgExi74bJsqKRxpok-44" edge="1">
          <mxGeometry relative="1" as="geometry" />
        </mxCell>
        <mxCell id="NUVWgExi74bJsqKRxpok-24" value="" style="rounded=0;whiteSpace=wrap;html=1;fillStyle=solid;fillColor=none;" parent="1" vertex="1">
          <mxGeometry x="343" y="190" width="220" height="120" as="geometry" />
        </mxCell>
        <mxCell id="NUVWgExi74bJsqKRxpok-25" value="" style="endArrow=none;dashed=1;html=1;rounded=0;exitX=0.5;exitY=1;exitDx=0;exitDy=0;entryX=0.5;entryY=0;entryDx=0;entryDy=0;" parent="1" source="NUVWgExi74bJsqKRxpok-24" target="NUVWgExi74bJsqKRxpok-24" edge="1">
          <mxGeometry width="50" height="50" relative="1" as="geometry">
            <mxPoint x="380" y="240" as="sourcePoint" />
            <mxPoint x="430" y="220" as="targetPoint" />
          </mxGeometry>
        </mxCell>
        <mxCell id="NUVWgExi74bJsqKRxpok-28" value="product-display" style="text;html=1;strokeColor=none;fillColor=none;align=center;verticalAlign=middle;whiteSpace=wrap;rounded=0;fillStyle=solid;" parent="1" vertex="1">
          <mxGeometry x="349" y="230" width="84" height="30" as="geometry" />
        </mxCell>
        <mxCell id="NUVWgExi74bJsqKRxpok-29" value="comment-display" style="text;html=1;strokeColor=none;fillColor=none;align=center;verticalAlign=middle;whiteSpace=wrap;rounded=0;fillStyle=solid;" parent="1" vertex="1">
          <mxGeometry x="455" y="232.5" width="100" height="25" as="geometry" />
        </mxCell>
        <mxCell id="NUVWgExi74bJsqKRxpok-33" value="" style="rounded=0;whiteSpace=wrap;html=1;fillStyle=solid;fillColor=none;" parent="1" vertex="1">
          <mxGeometry x="290" y="360" width="140" height="220" as="geometry" />
        </mxCell>
        <mxCell id="NUVWgExi74bJsqKRxpok-34" value="product-display" style="text;html=1;strokeColor=none;fillColor=none;align=center;verticalAlign=middle;whiteSpace=wrap;rounded=0;fillStyle=solid;" parent="1" vertex="1">
          <mxGeometry x="322" y="335" width="86" height="20" as="geometry" />
        </mxCell>
        <mxCell id="NUVWgExi74bJsqKRxpok-35" value="tab-selector" style="rounded=0;whiteSpace=wrap;html=1;fillStyle=solid;fillColor=none;" parent="1" vertex="1">
          <mxGeometry x="311" y="377.5" width="99" height="32.5" as="geometry" />
        </mxCell>
        <mxCell id="NUVWgExi74bJsqKRxpok-36" value="" style="rounded=0;whiteSpace=wrap;html=1;fillStyle=solid;fillColor=none;" parent="1" vertex="1">
          <mxGeometry x="300" y="420" width="120" height="140" as="geometry" />
        </mxCell>
        <mxCell id="NUVWgExi74bJsqKRxpok-38" value="product-card" style="rounded=0;whiteSpace=wrap;html=1;fillStyle=solid;fillColor=none;" parent="1" vertex="1">
          <mxGeometry x="312" y="430" width="98" height="30" as="geometry" />
        </mxCell>
        <mxCell id="NUVWgExi74bJsqKRxpok-39" value="product-card" style="rounded=0;whiteSpace=wrap;html=1;fillStyle=solid;fillColor=none;" parent="1" vertex="1">
          <mxGeometry x="312" y="465" width="98" height="30" as="geometry" />
        </mxCell>
        <mxCell id="NUVWgExi74bJsqKRxpok-41" value="" style="endArrow=none;dashed=1;html=1;dashPattern=1 3;strokeWidth=2;rounded=0;" parent="1" edge="1">
          <mxGeometry width="50" height="50" relative="1" as="geometry">
            <mxPoint x="360" y="519" as="sourcePoint" />
            <mxPoint x="360" y="499" as="targetPoint" />
          </mxGeometry>
        </mxCell>
        <mxCell id="NUVWgExi74bJsqKRxpok-67" style="edgeStyle=orthogonalEdgeStyle;rounded=0;orthogonalLoop=1;jettySize=auto;html=1;exitX=0.5;exitY=1;exitDx=0;exitDy=0;" parent="1" source="NUVWgExi74bJsqKRxpok-42" target="NUVWgExi74bJsqKRxpok-53" edge="1">
          <mxGeometry relative="1" as="geometry" />
        </mxCell>
        <mxCell id="NUVWgExi74bJsqKRxpok-42" value="product-card" style="rounded=0;whiteSpace=wrap;html=1;fillStyle=solid;fillColor=none;" parent="1" vertex="1">
          <mxGeometry x="312" y="525" width="98" height="30" as="geometry" />
        </mxCell>
        <mxCell id="NUVWgExi74bJsqKRxpok-73" style="edgeStyle=orthogonalEdgeStyle;rounded=0;orthogonalLoop=1;jettySize=auto;html=1;exitX=0.5;exitY=1;exitDx=0;exitDy=0;entryX=0.5;entryY=0;entryDx=0;entryDy=0;" parent="1" source="NUVWgExi74bJsqKRxpok-43" target="NUVWgExi74bJsqKRxpok-59" edge="1">
          <mxGeometry relative="1" as="geometry" />
        </mxCell>
        <mxCell id="NUVWgExi74bJsqKRxpok-43" value="" style="rounded=0;whiteSpace=wrap;html=1;fillStyle=solid;fillColor=none;" parent="1" vertex="1">
          <mxGeometry x="450" y="360" width="130" height="220" as="geometry" />
        </mxCell>
        <mxCell id="NUVWgExi74bJsqKRxpok-44" value="comment-display" style="text;html=1;strokeColor=none;fillColor=none;align=center;verticalAlign=middle;whiteSpace=wrap;rounded=0;fillStyle=solid;" parent="1" vertex="1">
          <mxGeometry x="466" y="340" width="98" height="15" as="geometry" />
        </mxCell>
        <mxCell id="NUVWgExi74bJsqKRxpok-45" value="tab-selector" style="rounded=0;whiteSpace=wrap;html=1;fillStyle=solid;fillColor=none;" parent="1" vertex="1">
          <mxGeometry x="466" y="377.5" width="99" height="32.5" as="geometry" />
        </mxCell>
        <mxCell id="NUVWgExi74bJsqKRxpok-47" value="" style="rounded=0;whiteSpace=wrap;html=1;fillStyle=solid;fillColor=none;" parent="1" vertex="1">
          <mxGeometry x="460" y="420" width="110" height="140" as="geometry" />
        </mxCell>
        <mxCell id="NUVWgExi74bJsqKRxpok-48" value="comment-item" style="rounded=0;whiteSpace=wrap;html=1;fillStyle=solid;fillColor=none;" parent="1" vertex="1">
          <mxGeometry x="467" y="430" width="98" height="30" as="geometry" />
        </mxCell>
        <mxCell id="NUVWgExi74bJsqKRxpok-49" value="comment-item" style="rounded=0;whiteSpace=wrap;html=1;fillStyle=solid;fillColor=none;" parent="1" vertex="1">
          <mxGeometry x="467" y="465" width="98" height="30" as="geometry" />
        </mxCell>
        <mxCell id="NUVWgExi74bJsqKRxpok-50" value="" style="endArrow=none;dashed=1;html=1;dashPattern=1 3;strokeWidth=2;rounded=0;" parent="1" edge="1">
          <mxGeometry width="50" height="50" relative="1" as="geometry">
            <mxPoint x="515" y="519" as="sourcePoint" />
            <mxPoint x="515" y="499" as="targetPoint" />
          </mxGeometry>
        </mxCell>
        <mxCell id="NUVWgExi74bJsqKRxpok-51" value="comment-item" style="rounded=0;whiteSpace=wrap;html=1;fillStyle=solid;fillColor=none;" parent="1" vertex="1">
          <mxGeometry x="467" y="525" width="98" height="30" as="geometry" />
        </mxCell>
        <mxCell id="NUVWgExi74bJsqKRxpok-52" value="" style="rounded=0;whiteSpace=wrap;html=1;fillStyle=solid;fillColor=none;" parent="1" vertex="1">
          <mxGeometry x="279" y="615" width="190" height="65" as="geometry" />
        </mxCell>
        <mxCell id="NUVWgExi74bJsqKRxpok-53" value="product-card" style="text;html=1;strokeColor=none;fillColor=none;align=center;verticalAlign=middle;whiteSpace=wrap;rounded=0;fillStyle=solid;" parent="1" vertex="1">
          <mxGeometry x="322" y="590" width="79" height="25" as="geometry" />
        </mxCell>
        <mxCell id="NUVWgExi74bJsqKRxpok-55" value="图片" style="rounded=0;whiteSpace=wrap;html=1;fillStyle=solid;fillColor=none;" parent="1" vertex="1">
          <mxGeometry x="291.5" y="632.5" width="39" height="30" as="geometry" />
        </mxCell>
        <mxCell id="NUVWgExi74bJsqKRxpok-56" value="商品名" style="rounded=0;whiteSpace=wrap;html=1;fillStyle=solid;fillColor=none;" parent="1" vertex="1">
          <mxGeometry x="360" y="623" width="85" height="20" as="geometry" />
        </mxCell>
        <mxCell id="NUVWgExi74bJsqKRxpok-57" value="成交金额" style="rounded=0;whiteSpace=wrap;html=1;fillStyle=solid;fillColor=none;" parent="1" vertex="1">
          <mxGeometry x="338.5" y="650" width="57" height="20" as="geometry" />
        </mxCell>
        <mxCell id="NUVWgExi74bJsqKRxpok-58" value="成交件数" style="rounded=0;whiteSpace=wrap;html=1;fillStyle=solid;fillColor=none;" parent="1" vertex="1">
          <mxGeometry x="406" y="650" width="50" height="20" as="geometry" />
        </mxCell>
        <mxCell id="NUVWgExi74bJsqKRxpok-59" value="comment-display" style="text;html=1;strokeColor=none;fillColor=none;align=center;verticalAlign=middle;whiteSpace=wrap;rounded=0;fillStyle=solid;" parent="1" vertex="1">
          <mxGeometry x="502" y="595" width="98" height="15" as="geometry" />
        </mxCell>
        <mxCell id="NUVWgExi74bJsqKRxpok-60" value="消息内容" style="rounded=0;whiteSpace=wrap;html=1;fillStyle=solid;fillColor=none;" parent="1" vertex="1">
          <mxGeometry x="540" y="620" width="90" height="20" as="geometry" />
        </mxCell>
        <mxCell id="NUVWgExi74bJsqKRxpok-61" value="用户昵称" style="rounded=0;whiteSpace=wrap;html=1;fillStyle=solid;fillColor=none;" parent="1" vertex="1">
          <mxGeometry x="490" y="620" width="50" height="20" as="geometry" />
        </mxCell>
        <mxCell id="NUVWgExi74bJsqKRxpok-76" value="公共组件" style="text;html=1;strokeColor=none;fillColor=none;align=center;verticalAlign=middle;whiteSpace=wrap;rounded=0;fillStyle=solid;" parent="1" vertex="1">
          <mxGeometry x="710" y="90" width="60" height="30" as="geometry" />
        </mxCell>
        <mxCell id="NUVWgExi74bJsqKRxpok-77" value="" style="shape=flexArrow;endArrow=classic;html=1;rounded=0;dashed=1;" parent="1" edge="1">
          <mxGeometry width="50" height="50" relative="1" as="geometry">
            <mxPoint x="158.47" y="414" as="sourcePoint" />
            <mxPoint x="158.47" y="454" as="targetPoint" />
          </mxGeometry>
        </mxCell>
        <mxCell id="NUVWgExi74bJsqKRxpok-78" value="" style="rounded=0;whiteSpace=wrap;html=1;fillStyle=solid;fillColor=none;" parent="1" vertex="1">
          <mxGeometry x="80" y="490" width="160" height="255" as="geometry" />
        </mxCell>
        <mxCell id="NUVWgExi74bJsqKRxpok-79" value="header" style="rounded=0;whiteSpace=wrap;html=1;fillStyle=solid;fillColor=none;" parent="1" vertex="1">
          <mxGeometry x="80" y="490" width="160" height="35" as="geometry" />
        </mxCell>
        <mxCell id="NUVWgExi74bJsqKRxpok-80" value="data-card" style="rounded=0;whiteSpace=wrap;html=1;fillStyle=solid;fillColor=none;" parent="1" vertex="1">
          <mxGeometry x="95" y="540" width="130" height="55" as="geometry" />
        </mxCell>
        <mxCell id="NUVWgExi74bJsqKRxpok-81" value="" style="rounded=0;whiteSpace=wrap;html=1;fillStyle=solid;fillColor=none;" parent="1" vertex="1">
          <mxGeometry x="80" y="615" width="160" height="130" as="geometry" />
        </mxCell>
        <mxCell id="NUVWgExi74bJsqKRxpok-82" value="tab-module" style="text;html=1;strokeColor=none;fillColor=none;align=center;verticalAlign=middle;whiteSpace=wrap;rounded=0;fillStyle=solid;" parent="1" vertex="1">
          <mxGeometry x="125" y="615" width="70" height="25" as="geometry" />
        </mxCell>
        <mxCell id="NUVWgExi74bJsqKRxpok-102" style="edgeStyle=orthogonalEdgeStyle;rounded=0;orthogonalLoop=1;jettySize=auto;html=1;entryX=0.5;entryY=0;entryDx=0;entryDy=0;dashed=1;" parent="1" source="NUVWgExi74bJsqKRxpok-86" target="NUVWgExi74bJsqKRxpok-90" edge="1">
          <mxGeometry relative="1" as="geometry" />
        </mxCell>
        <mxCell id="NUVWgExi74bJsqKRxpok-86" value="user-info" style="rounded=0;whiteSpace=wrap;html=1;fillStyle=solid;fillColor=none;dashed=1;" parent="1" vertex="1">
          <mxGeometry x="80" y="650" width="160" height="95" as="geometry" />
        </mxCell>
        <mxCell id="NUVWgExi74bJsqKRxpok-87" value="直播中控页&lt;br&gt;(无弹窗)" style="text;html=1;strokeColor=none;fillColor=none;align=center;verticalAlign=middle;whiteSpace=wrap;rounded=0;dashed=1;fillStyle=solid;" parent="1" vertex="1">
          <mxGeometry x="125" y="125" width="95" height="25" as="geometry" />
        </mxCell>
        <mxCell id="NUVWgExi74bJsqKRxpok-88" value="直播中控页&lt;br&gt;(有弹窗)" style="text;html=1;strokeColor=none;fillColor=none;align=center;verticalAlign=middle;whiteSpace=wrap;rounded=0;dashed=1;fillStyle=solid;" parent="1" vertex="1">
          <mxGeometry x="113.5" y="459" width="95" height="25" as="geometry" />
        </mxCell>
        <mxCell id="NUVWgExi74bJsqKRxpok-90" value="" style="rounded=0;whiteSpace=wrap;html=1;fillStyle=solid;fillColor=none;" parent="1" vertex="1">
          <mxGeometry x="281" y="720" width="239" height="130" as="geometry" />
        </mxCell>
        <mxCell id="NUVWgExi74bJsqKRxpok-94" value="user-info" style="text;html=1;strokeColor=none;fillColor=none;align=center;verticalAlign=middle;whiteSpace=wrap;rounded=0;fillStyle=solid;" parent="1" vertex="1">
          <mxGeometry x="283" y="720" width="60" height="30" as="geometry" />
        </mxCell>
        <mxCell id="NUVWgExi74bJsqKRxpok-96" value="doughnut-chart" style="rounded=0;whiteSpace=wrap;html=1;fillStyle=solid;fillColor=none;" parent="1" vertex="1">
          <mxGeometry x="302" y="750" width="58" height="30" as="geometry" />
        </mxCell>
        <mxCell id="NUVWgExi74bJsqKRxpok-97" value="doughnut-chart" style="rounded=0;whiteSpace=wrap;html=1;fillStyle=solid;fillColor=none;" parent="1" vertex="1">
          <mxGeometry x="373.5" y="750" width="58" height="30" as="geometry" />
        </mxCell>
        <mxCell id="NUVWgExi74bJsqKRxpok-98" value="doughnut-chart" style="rounded=0;whiteSpace=wrap;html=1;fillStyle=solid;fillColor=none;" parent="1" vertex="1">
          <mxGeometry x="302" y="800" width="58" height="30" as="geometry" />
        </mxCell>
        <mxCell id="NUVWgExi74bJsqKRxpok-99" value="doughnut-chart" style="rounded=0;whiteSpace=wrap;html=1;fillStyle=solid;fillColor=none;" parent="1" vertex="1">
          <mxGeometry x="375" y="800" width="58" height="30" as="geometry" />
        </mxCell>
        <mxCell id="NUVWgExi74bJsqKRxpok-100" value="doughnut-chart" style="rounded=0;whiteSpace=wrap;html=1;fillStyle=solid;fillColor=none;" parent="1" vertex="1">
          <mxGeometry x="445" y="750" width="58" height="30" as="geometry" />
        </mxCell>
        <mxCell id="NUVWgExi74bJsqKRxpok-101" value="doughnut-chart" style="rounded=0;whiteSpace=wrap;html=1;fillStyle=solid;fillColor=none;" parent="1" vertex="1">
          <mxGeometry x="445" y="800" width="58" height="30" as="geometry" />
        </mxCell>
      </root>
    </mxGraphModel>
  </diagram>
  <diagram id="VGAMLGy2pDshRPO5VxWp" name="第 2 页">
    <mxGraphModel dx="1225" dy="886" grid="1" gridSize="6" guides="1" tooltips="1" connect="1" arrows="1" fold="1" page="1" pageScale="1" pageWidth="827" pageHeight="1169" math="0" shadow="0">
      <root>
        <mxCell id="0" />
        <mxCell id="1" parent="0" />
        <mxCell id="jlSKy80MWfQZGo_qz9iX-1" value="No-Data&lt;br&gt;(未开播)" style="rounded=0;whiteSpace=wrap;html=1;" vertex="1" parent="1">
          <mxGeometry x="24" y="38" width="141" height="197" as="geometry" />
        </mxCell>
        <mxCell id="jlSKy80MWfQZGo_qz9iX-2" value="No-Data&lt;br&gt;(无对应类型评论)" style="rounded=0;whiteSpace=wrap;html=1;" vertex="1" parent="1">
          <mxGeometry x="194" y="38" width="137" height="198" as="geometry" />
        </mxCell>
        <mxCell id="jlSKy80MWfQZGo_qz9iX-3" value="tab1" style="rounded=0;whiteSpace=wrap;html=1;fillColor=#dae8fc;strokeColor=#6c8ebf;" vertex="1" parent="1">
          <mxGeometry x="200" y="53" width="35" height="16" as="geometry" />
        </mxCell>
        <mxCell id="jlSKy80MWfQZGo_qz9iX-4" value="tab2" style="rounded=0;whiteSpace=wrap;html=1;" vertex="1" parent="1">
          <mxGeometry x="240" y="53" width="35" height="16" as="geometry" />
        </mxCell>
        <mxCell id="jlSKy80MWfQZGo_qz9iX-5" value="tab3" style="rounded=0;whiteSpace=wrap;html=1;" vertex="1" parent="1">
          <mxGeometry x="280" y="53" width="35" height="16" as="geometry" />
        </mxCell>
        <mxCell id="jlSKy80MWfQZGo_qz9iX-7" value="" style="rounded=0;whiteSpace=wrap;html=1;" vertex="1" parent="1">
          <mxGeometry x="352" y="38" width="141" height="198" as="geometry" />
        </mxCell>
        <mxCell id="jlSKy80MWfQZGo_qz9iX-8" value="tab1" style="rounded=0;whiteSpace=wrap;html=1;fillColor=#dae8fc;strokeColor=#6c8ebf;" vertex="1" parent="1">
          <mxGeometry x="358" y="53" width="35" height="16" as="geometry" />
        </mxCell>
        <mxCell id="jlSKy80MWfQZGo_qz9iX-9" value="tab2" style="rounded=0;whiteSpace=wrap;html=1;" vertex="1" parent="1">
          <mxGeometry x="398" y="53" width="35" height="16" as="geometry" />
        </mxCell>
        <mxCell id="jlSKy80MWfQZGo_qz9iX-10" value="tab3" style="rounded=0;whiteSpace=wrap;html=1;" vertex="1" parent="1">
          <mxGeometry x="438" y="53" width="35" height="16" as="geometry" />
        </mxCell>
        <mxCell id="jlSKy80MWfQZGo_qz9iX-11" value="commentItem_1" style="rounded=0;whiteSpace=wrap;html=1;" vertex="1" parent="1">
          <mxGeometry x="362" y="77" width="118" height="21" as="geometry" />
        </mxCell>
        <mxCell id="jlSKy80MWfQZGo_qz9iX-12" value="commentItem_2" style="rounded=0;whiteSpace=wrap;html=1;" vertex="1" parent="1">
          <mxGeometry x="362" y="108" width="118" height="21" as="geometry" />
        </mxCell>
        <mxCell id="jlSKy80MWfQZGo_qz9iX-13" value="commentItem_3" style="rounded=0;whiteSpace=wrap;html=1;" vertex="1" parent="1">
          <mxGeometry x="362" y="137" width="118" height="21" as="geometry" />
        </mxCell>
        <mxCell id="jlSKy80MWfQZGo_qz9iX-74" style="edgeStyle=orthogonalEdgeStyle;rounded=0;orthogonalLoop=1;jettySize=auto;html=1;exitX=1;exitY=0.5;exitDx=0;exitDy=0;entryX=0;entryY=0.5;entryDx=0;entryDy=0;dashed=1;endArrow=classic;endFill=1;strokeWidth=1;" edge="1" parent="1" source="jlSKy80MWfQZGo_qz9iX-14" target="jlSKy80MWfQZGo_qz9iX-25">
          <mxGeometry relative="1" as="geometry" />
        </mxCell>
        <mxCell id="jlSKy80MWfQZGo_qz9iX-14" value="commentItem_n" style="rounded=0;whiteSpace=wrap;html=1;" vertex="1" parent="1">
          <mxGeometry x="362" y="180" width="118" height="21" as="geometry" />
        </mxCell>
        <mxCell id="jlSKy80MWfQZGo_qz9iX-25" value="cursor" style="text;html=1;strokeColor=none;fillColor=none;align=center;verticalAlign=middle;whiteSpace=wrap;rounded=0;" vertex="1" parent="1">
          <mxGeometry x="510" y="179" width="41" height="22" as="geometry" />
        </mxCell>
        <mxCell id="jlSKy80MWfQZGo_qz9iX-27" value="" style="shape=curlyBracket;whiteSpace=wrap;html=1;rounded=1;flipH=1;size=0.5;" vertex="1" parent="1">
          <mxGeometry x="480.5" y="84" width="41.5" height="102" as="geometry" />
        </mxCell>
        <mxCell id="jlSKy80MWfQZGo_qz9iX-30" value="commentList" style="text;html=1;strokeColor=none;fillColor=none;align=center;verticalAlign=middle;whiteSpace=wrap;rounded=0;" vertex="1" parent="1">
          <mxGeometry x="526" y="120" width="60" height="30" as="geometry" />
        </mxCell>
        <mxCell id="jlSKy80MWfQZGo_qz9iX-32" value="" style="endArrow=none;dashed=1;html=1;rounded=0;strokeWidth=1;" edge="1" parent="1">
          <mxGeometry width="50" height="50" relative="1" as="geometry">
            <mxPoint x="420.6" y="176.5" as="sourcePoint" />
            <mxPoint x="420.6" y="162.5" as="targetPoint" />
          </mxGeometry>
        </mxCell>
        <mxCell id="jlSKy80MWfQZGo_qz9iX-48" value="" style="rounded=0;whiteSpace=wrap;html=1;" vertex="1" parent="1">
          <mxGeometry x="352" y="310" width="141" height="198" as="geometry" />
        </mxCell>
        <mxCell id="jlSKy80MWfQZGo_qz9iX-49" value="tab1" style="rounded=0;whiteSpace=wrap;html=1;fillColor=#dae8fc;strokeColor=#6c8ebf;" vertex="1" parent="1">
          <mxGeometry x="358" y="325" width="35" height="16" as="geometry" />
        </mxCell>
        <mxCell id="jlSKy80MWfQZGo_qz9iX-50" value="tab2" style="rounded=0;whiteSpace=wrap;html=1;" vertex="1" parent="1">
          <mxGeometry x="398" y="325" width="35" height="16" as="geometry" />
        </mxCell>
        <mxCell id="jlSKy80MWfQZGo_qz9iX-51" value="tab3" style="rounded=0;whiteSpace=wrap;html=1;" vertex="1" parent="1">
          <mxGeometry x="438" y="325" width="35" height="16" as="geometry" />
        </mxCell>
        <mxCell id="jlSKy80MWfQZGo_qz9iX-52" value="commentItem_1" style="rounded=0;whiteSpace=wrap;html=1;" vertex="1" parent="1">
          <mxGeometry x="362" y="349" width="118" height="21" as="geometry" />
        </mxCell>
        <mxCell id="jlSKy80MWfQZGo_qz9iX-53" value="commentItem_2" style="rounded=0;whiteSpace=wrap;html=1;" vertex="1" parent="1">
          <mxGeometry x="362" y="378" width="118" height="21" as="geometry" />
        </mxCell>
        <mxCell id="jlSKy80MWfQZGo_qz9iX-54" value="commentItem_3" style="rounded=0;whiteSpace=wrap;html=1;" vertex="1" parent="1">
          <mxGeometry x="362" y="409" width="118" height="21" as="geometry" />
        </mxCell>
        <mxCell id="jlSKy80MWfQZGo_qz9iX-56" value="commentItem_n" style="rounded=0;whiteSpace=wrap;html=1;" vertex="1" parent="1">
          <mxGeometry x="362.5" y="456" width="118" height="21" as="geometry" />
        </mxCell>
        <mxCell id="jlSKy80MWfQZGo_qz9iX-57" value="cursor" style="text;html=1;strokeColor=none;fillColor=none;align=center;verticalAlign=middle;whiteSpace=wrap;rounded=0;" vertex="1" parent="1">
          <mxGeometry x="510" y="573" width="41" height="22" as="geometry" />
        </mxCell>
        <mxCell id="jlSKy80MWfQZGo_qz9iX-58" value="" style="shape=curlyBracket;whiteSpace=wrap;html=1;rounded=1;flipH=1;size=0.5;" vertex="1" parent="1">
          <mxGeometry x="480.5" y="356" width="35.5" height="112" as="geometry" />
        </mxCell>
        <mxCell id="jlSKy80MWfQZGo_qz9iX-59" value="" style="endArrow=none;dashed=1;html=1;rounded=0;strokeWidth=1;" edge="1" parent="1">
          <mxGeometry width="50" height="50" relative="1" as="geometry">
            <mxPoint x="422.0999999999999" y="452" as="sourcePoint" />
            <mxPoint x="422.0999999999999" y="438" as="targetPoint" />
          </mxGeometry>
        </mxCell>
        <mxCell id="jlSKy80MWfQZGo_qz9iX-61" value="" style="rounded=0;whiteSpace=wrap;html=1;dashed=1;" vertex="1" parent="1">
          <mxGeometry x="352" y="508" width="141" height="92" as="geometry" />
        </mxCell>
        <mxCell id="jlSKy80MWfQZGo_qz9iX-62" value="commentItem_n+1" style="rounded=0;whiteSpace=wrap;html=1;" vertex="1" parent="1">
          <mxGeometry x="363.5" y="516" width="118" height="21" as="geometry" />
        </mxCell>
        <mxCell id="jlSKy80MWfQZGo_qz9iX-63" value="commentItem_n+2" style="rounded=0;whiteSpace=wrap;html=1;" vertex="1" parent="1">
          <mxGeometry x="363.5" y="546" width="118" height="21" as="geometry" />
        </mxCell>
        <mxCell id="jlSKy80MWfQZGo_qz9iX-65" style="edgeStyle=orthogonalEdgeStyle;rounded=0;orthogonalLoop=1;jettySize=auto;html=1;exitX=1;exitY=0.5;exitDx=0;exitDy=0;dashed=1;endArrow=classic;endFill=1;strokeWidth=1;" edge="1" parent="1" source="jlSKy80MWfQZGo_qz9iX-64">
          <mxGeometry relative="1" as="geometry">
            <mxPoint x="510" y="584.5999999999999" as="targetPoint" />
          </mxGeometry>
        </mxCell>
        <mxCell id="jlSKy80MWfQZGo_qz9iX-64" value="commentItem_n+3" style="rounded=0;whiteSpace=wrap;html=1;" vertex="1" parent="1">
          <mxGeometry x="363.5" y="574" width="118" height="21" as="geometry" />
        </mxCell>
        <mxCell id="jlSKy80MWfQZGo_qz9iX-66" value="commentList" style="text;html=1;strokeColor=none;fillColor=none;align=center;verticalAlign=middle;whiteSpace=wrap;rounded=0;" vertex="1" parent="1">
          <mxGeometry x="526" y="397" width="60" height="30" as="geometry" />
        </mxCell>
        <mxCell id="jlSKy80MWfQZGo_qz9iX-68" value="" style="shape=curlyBracket;whiteSpace=wrap;html=1;rounded=1;flipH=1;strokeWidth=1;fillColor=none;" vertex="1" parent="1">
          <mxGeometry x="481.5" y="522" width="34.5" height="60" as="geometry" />
        </mxCell>
        <mxCell id="jlSKy80MWfQZGo_qz9iX-70" value="stoppedCommentList" style="text;html=1;strokeColor=none;fillColor=none;align=center;verticalAlign=middle;whiteSpace=wrap;rounded=0;" vertex="1" parent="1">
          <mxGeometry x="518" y="540" width="114" height="24" as="geometry" />
        </mxCell>
        <mxCell id="jlSKy80MWfQZGo_qz9iX-77" value="newCommentNotice" style="rounded=0;whiteSpace=wrap;html=1;fillColor=#ffe6cc;strokeColor=#d79b00;" vertex="1" parent="1">
          <mxGeometry x="352" y="484" width="141" height="24" as="geometry" />
        </mxCell>
        <mxCell id="jlSKy80MWfQZGo_qz9iX-79" value="case1" style="text;html=1;strokeColor=none;fillColor=none;align=center;verticalAlign=middle;whiteSpace=wrap;rounded=0;" vertex="1" parent="1">
          <mxGeometry x="65" y="6" width="60" height="30" as="geometry" />
        </mxCell>
        <mxCell id="jlSKy80MWfQZGo_qz9iX-80" value="case2" style="text;html=1;strokeColor=none;fillColor=none;align=center;verticalAlign=middle;whiteSpace=wrap;rounded=0;" vertex="1" parent="1">
          <mxGeometry x="227" y="6" width="61" height="30" as="geometry" />
        </mxCell>
        <mxCell id="jlSKy80MWfQZGo_qz9iX-81" value="case3" style="text;html=1;strokeColor=none;fillColor=none;align=center;verticalAlign=middle;whiteSpace=wrap;rounded=0;" vertex="1" parent="1">
          <mxGeometry x="390.5" y="6" width="61" height="30" as="geometry" />
        </mxCell>
        <mxCell id="jlSKy80MWfQZGo_qz9iX-82" value="case4" style="text;html=1;strokeColor=none;fillColor=none;align=center;verticalAlign=middle;whiteSpace=wrap;rounded=0;" vertex="1" parent="1">
          <mxGeometry x="391" y="276" width="61" height="30" as="geometry" />
        </mxCell>
        <mxCell id="Qn1Ij6X4ovqag9vlPoOQ-1" style="edgeStyle=orthogonalEdgeStyle;rounded=0;orthogonalLoop=1;jettySize=auto;html=1;exitX=1;exitY=0.5;exitDx=0;exitDy=0;entryX=0;entryY=0.5;entryDx=0;entryDy=0;fontSize=10;endArrow=classic;endFill=1;strokeWidth=1;" edge="1" parent="1" source="Qn1Ij6X4ovqag9vlPoOQ-2">
          <mxGeometry relative="1" as="geometry">
            <mxPoint x="162" y="787" as="targetPoint" />
          </mxGeometry>
        </mxCell>
        <mxCell id="Qn1Ij6X4ovqag9vlPoOQ-2" value="切换至重要评论tab" style="rounded=0;whiteSpace=wrap;html=1;fontSize=10;strokeWidth=1;fillColor=none;" vertex="1" parent="1">
          <mxGeometry x="36" y="769" width="78" height="36" as="geometry" />
        </mxCell>
        <mxCell id="Qn1Ij6X4ovqag9vlPoOQ-3" style="edgeStyle=orthogonalEdgeStyle;rounded=0;orthogonalLoop=1;jettySize=auto;html=1;exitX=0.5;exitY=0;exitDx=0;exitDy=0;fontSize=10;endArrow=classic;endFill=1;strokeWidth=1;" edge="1" parent="1" source="Qn1Ij6X4ovqag9vlPoOQ-6">
          <mxGeometry relative="1" as="geometry">
            <mxPoint x="207" y="709" as="targetPoint" />
          </mxGeometry>
        </mxCell>
        <mxCell id="Qn1Ij6X4ovqag9vlPoOQ-4" value="False" style="edgeLabel;html=1;align=center;verticalAlign=middle;resizable=0;points=[];fontSize=10;" vertex="1" connectable="0" parent="Qn1Ij6X4ovqag9vlPoOQ-3">
          <mxGeometry x="-0.2381" y="2" relative="1" as="geometry">
            <mxPoint as="offset" />
          </mxGeometry>
        </mxCell>
        <mxCell id="Qn1Ij6X4ovqag9vlPoOQ-5" style="edgeStyle=orthogonalEdgeStyle;rounded=0;orthogonalLoop=1;jettySize=auto;html=1;exitX=1;exitY=0.5;exitDx=0;exitDy=0;fontSize=10;endArrow=classic;endFill=1;strokeWidth=1;" edge="1" parent="1" source="Qn1Ij6X4ovqag9vlPoOQ-6" target="Qn1Ij6X4ovqag9vlPoOQ-18">
          <mxGeometry relative="1" as="geometry" />
        </mxCell>
        <mxCell id="Qn1Ij6X4ovqag9vlPoOQ-6" value="live-store.&lt;br&gt;userLiving" style="rhombus;whiteSpace=wrap;html=1;rounded=0;fontSize=10;strokeWidth=1;fillColor=none;" vertex="1" parent="1">
          <mxGeometry x="162" y="751" width="90" height="76" as="geometry" />
        </mxCell>
        <mxCell id="Qn1Ij6X4ovqag9vlPoOQ-7" value="case1" style="rounded=0;whiteSpace=wrap;html=1;fontSize=10;strokeWidth=1;fillColor=none;" vertex="1" parent="1">
          <mxGeometry x="177" y="679" width="60" height="30" as="geometry" />
        </mxCell>
        <mxCell id="Qn1Ij6X4ovqag9vlPoOQ-8" style="edgeStyle=orthogonalEdgeStyle;rounded=0;orthogonalLoop=1;jettySize=auto;html=1;exitX=0.5;exitY=0;exitDx=0;exitDy=0;entryX=0.5;entryY=1;entryDx=0;entryDy=0;fontSize=10;endArrow=classic;endFill=1;strokeWidth=1;" edge="1" parent="1" source="Qn1Ij6X4ovqag9vlPoOQ-12" target="Qn1Ij6X4ovqag9vlPoOQ-16">
          <mxGeometry relative="1" as="geometry" />
        </mxCell>
        <mxCell id="Qn1Ij6X4ovqag9vlPoOQ-9" value="False" style="edgeLabel;html=1;align=center;verticalAlign=middle;resizable=0;points=[];fontSize=10;" vertex="1" connectable="0" parent="Qn1Ij6X4ovqag9vlPoOQ-8">
          <mxGeometry x="-0.1807" relative="1" as="geometry">
            <mxPoint as="offset" />
          </mxGeometry>
        </mxCell>
        <mxCell id="Qn1Ij6X4ovqag9vlPoOQ-10" style="edgeStyle=orthogonalEdgeStyle;rounded=0;orthogonalLoop=1;jettySize=auto;html=1;exitX=0.5;exitY=1;exitDx=0;exitDy=0;entryX=0.5;entryY=0;entryDx=0;entryDy=0;fontSize=10;endArrow=classic;endFill=1;strokeWidth=1;" edge="1" parent="1" source="Qn1Ij6X4ovqag9vlPoOQ-12" target="Qn1Ij6X4ovqag9vlPoOQ-23">
          <mxGeometry relative="1" as="geometry" />
        </mxCell>
        <mxCell id="Qn1Ij6X4ovqag9vlPoOQ-11" value="True" style="edgeLabel;html=1;align=center;verticalAlign=middle;resizable=0;points=[];fontSize=10;" vertex="1" connectable="0" parent="Qn1Ij6X4ovqag9vlPoOQ-10">
          <mxGeometry x="-0.0123" y="2" relative="1" as="geometry">
            <mxPoint as="offset" />
          </mxGeometry>
        </mxCell>
        <mxCell id="Qn1Ij6X4ovqag9vlPoOQ-12" value="commentList.&lt;br&gt;length&amp;gt;0" style="rhombus;whiteSpace=wrap;html=1;rounded=0;fontSize=10;strokeWidth=1;fillColor=none;" vertex="1" parent="1">
          <mxGeometry x="497" y="753.5" width="102" height="71" as="geometry" />
        </mxCell>
        <mxCell id="Qn1Ij6X4ovqag9vlPoOQ-13" value="True" style="text;html=1;strokeColor=none;fillColor=none;align=center;verticalAlign=middle;whiteSpace=wrap;rounded=0;fontSize=10;" vertex="1" parent="1">
          <mxGeometry x="276" y="769" width="24" height="18" as="geometry" />
        </mxCell>
        <mxCell id="Qn1Ij6X4ovqag9vlPoOQ-14" style="edgeStyle=orthogonalEdgeStyle;rounded=0;orthogonalLoop=1;jettySize=auto;html=1;fontSize=10;endArrow=classic;endFill=1;strokeWidth=1;" edge="1" parent="1">
          <mxGeometry relative="1" as="geometry">
            <mxPoint x="194" y="992" as="sourcePoint" />
            <mxPoint x="194" y="992" as="targetPoint" />
          </mxGeometry>
        </mxCell>
        <mxCell id="Qn1Ij6X4ovqag9vlPoOQ-15" style="edgeStyle=orthogonalEdgeStyle;rounded=0;orthogonalLoop=1;jettySize=auto;html=1;exitX=0.5;exitY=0;exitDx=0;exitDy=0;fontSize=10;endArrow=classic;endFill=1;strokeWidth=1;" edge="1" parent="1" source="Qn1Ij6X4ovqag9vlPoOQ-16" target="Qn1Ij6X4ovqag9vlPoOQ-18">
          <mxGeometry relative="1" as="geometry" />
        </mxCell>
        <mxCell id="Qn1Ij6X4ovqag9vlPoOQ-16" value="case2" style="rounded=0;whiteSpace=wrap;html=1;fontSize=10;strokeWidth=1;fillColor=none;" vertex="1" parent="1">
          <mxGeometry x="513.5" y="676" width="69" height="36" as="geometry" />
        </mxCell>
        <mxCell id="Qn1Ij6X4ovqag9vlPoOQ-17" style="edgeStyle=orthogonalEdgeStyle;rounded=0;orthogonalLoop=1;jettySize=auto;html=1;exitX=1;exitY=0.5;exitDx=0;exitDy=0;entryX=0;entryY=0.5;entryDx=0;entryDy=0;fontSize=10;endArrow=classic;endFill=1;strokeWidth=1;" edge="1" parent="1" source="Qn1Ij6X4ovqag9vlPoOQ-18" target="Qn1Ij6X4ovqag9vlPoOQ-12">
          <mxGeometry relative="1" as="geometry">
            <mxPoint x="443" y="789" as="sourcePoint" />
          </mxGeometry>
        </mxCell>
        <mxCell id="Qn1Ij6X4ovqag9vlPoOQ-18" value="FetchComment" style="ellipse;whiteSpace=wrap;html=1;aspect=fixed;rounded=0;fontSize=10;strokeWidth=1;fillColor=none;" vertex="1" parent="1">
          <mxGeometry x="318" y="744" width="90" height="90" as="geometry" />
        </mxCell>
        <mxCell id="Qn1Ij6X4ovqag9vlPoOQ-19" style="edgeStyle=orthogonalEdgeStyle;rounded=0;orthogonalLoop=1;jettySize=auto;html=1;exitX=0.5;exitY=1;exitDx=0;exitDy=0;fontSize=10;endArrow=classic;endFill=1;strokeWidth=1;" edge="1" parent="1" source="Qn1Ij6X4ovqag9vlPoOQ-23">
          <mxGeometry relative="1" as="geometry">
            <mxPoint x="550" y="1009" as="targetPoint" />
          </mxGeometry>
        </mxCell>
        <mxCell id="Qn1Ij6X4ovqag9vlPoOQ-20" value="True" style="edgeLabel;html=1;align=center;verticalAlign=middle;resizable=0;points=[];fontSize=10;" vertex="1" connectable="0" parent="Qn1Ij6X4ovqag9vlPoOQ-19">
          <mxGeometry x="-0.262" relative="1" as="geometry">
            <mxPoint as="offset" />
          </mxGeometry>
        </mxCell>
        <mxCell id="Qn1Ij6X4ovqag9vlPoOQ-21" style="edgeStyle=orthogonalEdgeStyle;rounded=0;orthogonalLoop=1;jettySize=auto;html=1;exitX=0;exitY=0.5;exitDx=0;exitDy=0;fontSize=10;endArrow=classic;endFill=1;strokeWidth=1;" edge="1" parent="1" source="Qn1Ij6X4ovqag9vlPoOQ-23">
          <mxGeometry relative="1" as="geometry">
            <mxPoint x="449" y="910" as="targetPoint" />
          </mxGeometry>
        </mxCell>
        <mxCell id="Qn1Ij6X4ovqag9vlPoOQ-22" value="False" style="edgeLabel;html=1;align=center;verticalAlign=middle;resizable=0;points=[];fontSize=10;" vertex="1" connectable="0" parent="Qn1Ij6X4ovqag9vlPoOQ-21">
          <mxGeometry x="-0.2083" relative="1" as="geometry">
            <mxPoint as="offset" />
          </mxGeometry>
        </mxCell>
        <mxCell id="Qn1Ij6X4ovqag9vlPoOQ-23" value="评论满屏且&lt;br&gt;处于停滞状态" style="rhombus;whiteSpace=wrap;html=1;rounded=0;fontSize=10;strokeWidth=1;fillColor=none;" vertex="1" parent="1">
          <mxGeometry x="497" y="865" width="105.5" height="90" as="geometry" />
        </mxCell>
        <mxCell id="Qn1Ij6X4ovqag9vlPoOQ-24" style="edgeStyle=orthogonalEdgeStyle;rounded=0;orthogonalLoop=1;jettySize=auto;html=1;exitX=0;exitY=0.5;exitDx=0;exitDy=0;fontSize=10;endArrow=classic;endFill=1;strokeWidth=1;" edge="1" parent="1" source="Qn1Ij6X4ovqag9vlPoOQ-25">
          <mxGeometry relative="1" as="geometry">
            <mxPoint x="360" y="835" as="targetPoint" />
          </mxGeometry>
        </mxCell>
        <mxCell id="Qn1Ij6X4ovqag9vlPoOQ-25" value="case3" style="rounded=0;whiteSpace=wrap;html=1;fontSize=10;strokeWidth=1;fillColor=none;" vertex="1" parent="1">
          <mxGeometry x="396" y="895" width="54" height="30" as="geometry" />
        </mxCell>
        <mxCell id="Qn1Ij6X4ovqag9vlPoOQ-26" style="edgeStyle=orthogonalEdgeStyle;rounded=0;orthogonalLoop=1;jettySize=auto;html=1;exitX=0.5;exitY=1;exitDx=0;exitDy=0;fontSize=10;endArrow=classic;endFill=1;strokeWidth=1;" edge="1" parent="1" source="Qn1Ij6X4ovqag9vlPoOQ-27">
          <mxGeometry relative="1" as="geometry">
            <mxPoint x="360" y="835" as="targetPoint" />
          </mxGeometry>
        </mxCell>
        <mxCell id="Qn1Ij6X4ovqag9vlPoOQ-27" value="case4" style="rounded=0;whiteSpace=wrap;html=1;fontSize=10;strokeWidth=1;fillColor=none;" vertex="1" parent="1">
          <mxGeometry x="516.75" y="1009" width="66" height="33" as="geometry" />
        </mxCell>
      </root>
    </mxGraphModel>
  </diagram>
  <diagram id="klLxZOtBlCf-pLR-N0r_" name="第 3 页">
    <mxGraphModel dx="1286" dy="930" grid="1" gridSize="6" guides="1" tooltips="1" connect="1" arrows="1" fold="1" page="1" pageScale="1" pageWidth="827" pageHeight="1169" math="0" shadow="0">
      <root>
        <mxCell id="0" />
        <mxCell id="1" parent="0" />
        <mxCell id="32uHVRgX9964Nu2PTK6q-1" style="edgeStyle=orthogonalEdgeStyle;rounded=0;orthogonalLoop=1;jettySize=auto;html=1;exitX=1;exitY=0.5;exitDx=0;exitDy=0;entryX=0;entryY=0.5;entryDx=0;entryDy=0;fontSize=10;endArrow=classic;endFill=1;strokeWidth=1;" edge="1" parent="1" source="HUE3kWYsEyz6I8b-SxTz-1">
          <mxGeometry relative="1" as="geometry">
            <mxPoint x="162" y="360" as="targetPoint" />
          </mxGeometry>
        </mxCell>
        <mxCell id="HUE3kWYsEyz6I8b-SxTz-1" value="进入中控页面" style="rounded=0;whiteSpace=wrap;html=1;fontSize=10;strokeWidth=1;fillColor=none;" vertex="1" parent="1">
          <mxGeometry x="36" y="342" width="78" height="36" as="geometry" />
        </mxCell>
        <mxCell id="kPcPKj7OdBpFRrHlcjtV-1" style="edgeStyle=orthogonalEdgeStyle;rounded=0;orthogonalLoop=1;jettySize=auto;html=1;exitX=0.5;exitY=0;exitDx=0;exitDy=0;fontSize=10;endArrow=classic;endFill=1;strokeWidth=1;" edge="1" parent="1" source="32uHVRgX9964Nu2PTK6q-4">
          <mxGeometry relative="1" as="geometry">
            <mxPoint x="207" y="282" as="targetPoint" />
          </mxGeometry>
        </mxCell>
        <mxCell id="Eu3n2wOiaY-WQPBiVSiY-1" value="False" style="edgeLabel;html=1;align=center;verticalAlign=middle;resizable=0;points=[];fontSize=10;" vertex="1" connectable="0" parent="kPcPKj7OdBpFRrHlcjtV-1">
          <mxGeometry x="-0.2381" y="2" relative="1" as="geometry">
            <mxPoint as="offset" />
          </mxGeometry>
        </mxCell>
        <mxCell id="l6tUl1pR_nSDzd-1GnJh-5" style="edgeStyle=orthogonalEdgeStyle;rounded=0;orthogonalLoop=1;jettySize=auto;html=1;exitX=1;exitY=0.5;exitDx=0;exitDy=0;fontSize=10;endArrow=classic;endFill=1;strokeWidth=1;" edge="1" parent="1" source="32uHVRgX9964Nu2PTK6q-4" target="l6tUl1pR_nSDzd-1GnJh-4">
          <mxGeometry relative="1" as="geometry" />
        </mxCell>
        <mxCell id="32uHVRgX9964Nu2PTK6q-4" value="live-store.&lt;br&gt;userLiving" style="rhombus;whiteSpace=wrap;html=1;rounded=0;fontSize=10;strokeWidth=1;fillColor=none;" vertex="1" parent="1">
          <mxGeometry x="162" y="324" width="90" height="76" as="geometry" />
        </mxCell>
        <mxCell id="kPcPKj7OdBpFRrHlcjtV-2" value="case1" style="rounded=0;whiteSpace=wrap;html=1;fontSize=10;strokeWidth=1;fillColor=none;" vertex="1" parent="1">
          <mxGeometry x="177" y="252" width="60" height="30" as="geometry" />
        </mxCell>
        <mxCell id="l6tUl1pR_nSDzd-1GnJh-10" style="edgeStyle=orthogonalEdgeStyle;rounded=0;orthogonalLoop=1;jettySize=auto;html=1;exitX=0.5;exitY=0;exitDx=0;exitDy=0;entryX=0.5;entryY=1;entryDx=0;entryDy=0;fontSize=10;endArrow=classic;endFill=1;strokeWidth=1;" edge="1" parent="1" source="ZrPlBjbrfQ_z7JPIPJzP-2" target="jTR6KxUPlHPg1yocOMTr-11">
          <mxGeometry relative="1" as="geometry" />
        </mxCell>
        <mxCell id="l6tUl1pR_nSDzd-1GnJh-11" value="False" style="edgeLabel;html=1;align=center;verticalAlign=middle;resizable=0;points=[];fontSize=10;" vertex="1" connectable="0" parent="l6tUl1pR_nSDzd-1GnJh-10">
          <mxGeometry x="-0.1807" relative="1" as="geometry">
            <mxPoint as="offset" />
          </mxGeometry>
        </mxCell>
        <mxCell id="l6tUl1pR_nSDzd-1GnJh-17" style="edgeStyle=orthogonalEdgeStyle;rounded=0;orthogonalLoop=1;jettySize=auto;html=1;exitX=0.5;exitY=1;exitDx=0;exitDy=0;entryX=0.5;entryY=0;entryDx=0;entryDy=0;fontSize=10;endArrow=classic;endFill=1;strokeWidth=1;" edge="1" parent="1" source="ZrPlBjbrfQ_z7JPIPJzP-2" target="l6tUl1pR_nSDzd-1GnJh-16">
          <mxGeometry relative="1" as="geometry" />
        </mxCell>
        <mxCell id="l6tUl1pR_nSDzd-1GnJh-18" value="True" style="edgeLabel;html=1;align=center;verticalAlign=middle;resizable=0;points=[];fontSize=10;" vertex="1" connectable="0" parent="l6tUl1pR_nSDzd-1GnJh-17">
          <mxGeometry x="-0.0123" y="2" relative="1" as="geometry">
            <mxPoint as="offset" />
          </mxGeometry>
        </mxCell>
        <mxCell id="ZrPlBjbrfQ_z7JPIPJzP-2" value="commentList.&lt;br&gt;length&amp;gt;0" style="rhombus;whiteSpace=wrap;html=1;rounded=0;fontSize=10;strokeWidth=1;fillColor=none;" vertex="1" parent="1">
          <mxGeometry x="497" y="326.5" width="102" height="71" as="geometry" />
        </mxCell>
        <mxCell id="ZrPlBjbrfQ_z7JPIPJzP-4" value="True" style="text;html=1;strokeColor=none;fillColor=none;align=center;verticalAlign=middle;whiteSpace=wrap;rounded=0;fontSize=10;" vertex="1" parent="1">
          <mxGeometry x="276" y="342" width="24" height="18" as="geometry" />
        </mxCell>
        <mxCell id="jTR6KxUPlHPg1yocOMTr-5" style="edgeStyle=orthogonalEdgeStyle;rounded=0;orthogonalLoop=1;jettySize=auto;html=1;fontSize=10;endArrow=classic;endFill=1;strokeWidth=1;" edge="1" parent="1">
          <mxGeometry relative="1" as="geometry">
            <mxPoint x="194" y="565" as="sourcePoint" />
            <mxPoint x="194" y="565" as="targetPoint" />
          </mxGeometry>
        </mxCell>
        <mxCell id="l6tUl1pR_nSDzd-1GnJh-15" style="edgeStyle=orthogonalEdgeStyle;rounded=0;orthogonalLoop=1;jettySize=auto;html=1;exitX=0.5;exitY=0;exitDx=0;exitDy=0;fontSize=10;endArrow=classic;endFill=1;strokeWidth=1;" edge="1" parent="1" source="jTR6KxUPlHPg1yocOMTr-11" target="l6tUl1pR_nSDzd-1GnJh-4">
          <mxGeometry relative="1" as="geometry" />
        </mxCell>
        <mxCell id="jTR6KxUPlHPg1yocOMTr-11" value="case2" style="rounded=0;whiteSpace=wrap;html=1;fontSize=10;strokeWidth=1;fillColor=none;" vertex="1" parent="1">
          <mxGeometry x="513.5" y="249" width="69" height="36" as="geometry" />
        </mxCell>
        <mxCell id="l6tUl1pR_nSDzd-1GnJh-8" style="edgeStyle=orthogonalEdgeStyle;rounded=0;orthogonalLoop=1;jettySize=auto;html=1;exitX=1;exitY=0.5;exitDx=0;exitDy=0;entryX=0;entryY=0.5;entryDx=0;entryDy=0;fontSize=10;endArrow=classic;endFill=1;strokeWidth=1;" edge="1" parent="1" source="l6tUl1pR_nSDzd-1GnJh-4" target="ZrPlBjbrfQ_z7JPIPJzP-2">
          <mxGeometry relative="1" as="geometry">
            <mxPoint x="443" y="362" as="sourcePoint" />
          </mxGeometry>
        </mxCell>
        <mxCell id="l6tUl1pR_nSDzd-1GnJh-4" value="FetchComment" style="ellipse;whiteSpace=wrap;html=1;aspect=fixed;rounded=0;fontSize=10;strokeWidth=1;fillColor=none;" vertex="1" parent="1">
          <mxGeometry x="318" y="317" width="90" height="90" as="geometry" />
        </mxCell>
        <mxCell id="l6tUl1pR_nSDzd-1GnJh-19" style="edgeStyle=orthogonalEdgeStyle;rounded=0;orthogonalLoop=1;jettySize=auto;html=1;exitX=0.5;exitY=1;exitDx=0;exitDy=0;fontSize=10;endArrow=classic;endFill=1;strokeWidth=1;" edge="1" parent="1" source="l6tUl1pR_nSDzd-1GnJh-16">
          <mxGeometry relative="1" as="geometry">
            <mxPoint x="550" y="582" as="targetPoint" />
          </mxGeometry>
        </mxCell>
        <mxCell id="l6tUl1pR_nSDzd-1GnJh-23" value="True" style="edgeLabel;html=1;align=center;verticalAlign=middle;resizable=0;points=[];fontSize=10;" vertex="1" connectable="0" parent="l6tUl1pR_nSDzd-1GnJh-19">
          <mxGeometry x="-0.262" relative="1" as="geometry">
            <mxPoint as="offset" />
          </mxGeometry>
        </mxCell>
        <mxCell id="l6tUl1pR_nSDzd-1GnJh-20" style="edgeStyle=orthogonalEdgeStyle;rounded=0;orthogonalLoop=1;jettySize=auto;html=1;exitX=0;exitY=0.5;exitDx=0;exitDy=0;fontSize=10;endArrow=classic;endFill=1;strokeWidth=1;" edge="1" parent="1" source="l6tUl1pR_nSDzd-1GnJh-16">
          <mxGeometry relative="1" as="geometry">
            <mxPoint x="449" y="483" as="targetPoint" />
          </mxGeometry>
        </mxCell>
        <mxCell id="l6tUl1pR_nSDzd-1GnJh-22" value="False" style="edgeLabel;html=1;align=center;verticalAlign=middle;resizable=0;points=[];fontSize=10;" vertex="1" connectable="0" parent="l6tUl1pR_nSDzd-1GnJh-20">
          <mxGeometry x="-0.2083" relative="1" as="geometry">
            <mxPoint as="offset" />
          </mxGeometry>
        </mxCell>
        <mxCell id="l6tUl1pR_nSDzd-1GnJh-16" value="评论满屏且&lt;br&gt;处于停滞状态" style="rhombus;whiteSpace=wrap;html=1;rounded=0;fontSize=10;strokeWidth=1;fillColor=none;" vertex="1" parent="1">
          <mxGeometry x="497" y="438" width="105.5" height="90" as="geometry" />
        </mxCell>
        <mxCell id="l6tUl1pR_nSDzd-1GnJh-29" style="edgeStyle=orthogonalEdgeStyle;rounded=0;orthogonalLoop=1;jettySize=auto;html=1;exitX=0;exitY=0.5;exitDx=0;exitDy=0;fontSize=10;endArrow=classic;endFill=1;strokeWidth=1;" edge="1" parent="1" source="l6tUl1pR_nSDzd-1GnJh-21">
          <mxGeometry relative="1" as="geometry">
            <mxPoint x="360" y="408" as="targetPoint" />
          </mxGeometry>
        </mxCell>
        <mxCell id="l6tUl1pR_nSDzd-1GnJh-21" value="case3" style="rounded=0;whiteSpace=wrap;html=1;fontSize=10;strokeWidth=1;fillColor=none;" vertex="1" parent="1">
          <mxGeometry x="396" y="468" width="54" height="30" as="geometry" />
        </mxCell>
        <mxCell id="l6tUl1pR_nSDzd-1GnJh-28" style="edgeStyle=orthogonalEdgeStyle;rounded=0;orthogonalLoop=1;jettySize=auto;html=1;exitX=0.5;exitY=1;exitDx=0;exitDy=0;fontSize=10;endArrow=classic;endFill=1;strokeWidth=1;" edge="1" parent="1" source="l6tUl1pR_nSDzd-1GnJh-25">
          <mxGeometry relative="1" as="geometry">
            <mxPoint x="360" y="408" as="targetPoint" />
          </mxGeometry>
        </mxCell>
        <mxCell id="l6tUl1pR_nSDzd-1GnJh-25" value="case4" style="rounded=0;whiteSpace=wrap;html=1;fontSize=10;strokeWidth=1;fillColor=none;" vertex="1" parent="1">
          <mxGeometry x="516.75" y="582" width="66" height="33" as="geometry" />
        </mxCell>
      </root>
    </mxGraphModel>
  </diagram>
  <diagram id="tMX_fwGoEoKtgy5XpA2M" name="第 4 页">
    <mxGraphModel dx="1286" dy="930" grid="1" gridSize="6" guides="1" tooltips="1" connect="1" arrows="1" fold="1" page="1" pageScale="1" pageWidth="827" pageHeight="1169" math="0" shadow="0">
      <root>
        <mxCell id="0" />
        <mxCell id="1" parent="0" />
        <mxCell id="i6rqu2mOP690m8pZzZaT-2" value="No-Data&lt;br&gt;(无对应类型评论)" style="rounded=0;whiteSpace=wrap;html=1;" vertex="1" parent="1">
          <mxGeometry x="16" y="38" width="137" height="198" as="geometry" />
        </mxCell>
        <mxCell id="i6rqu2mOP690m8pZzZaT-3" value="tab1" style="rounded=0;whiteSpace=wrap;html=1;fillColor=#dae8fc;strokeColor=#6c8ebf;" vertex="1" parent="1">
          <mxGeometry x="22" y="53" width="35" height="16" as="geometry" />
        </mxCell>
        <mxCell id="i6rqu2mOP690m8pZzZaT-4" value="tab2" style="rounded=0;whiteSpace=wrap;html=1;" vertex="1" parent="1">
          <mxGeometry x="62" y="53" width="35" height="16" as="geometry" />
        </mxCell>
        <mxCell id="i6rqu2mOP690m8pZzZaT-5" value="tab3" style="rounded=0;whiteSpace=wrap;html=1;" vertex="1" parent="1">
          <mxGeometry x="102" y="53" width="35" height="16" as="geometry" />
        </mxCell>
        <mxCell id="i6rqu2mOP690m8pZzZaT-6" value="" style="rounded=0;whiteSpace=wrap;html=1;" vertex="1" parent="1">
          <mxGeometry x="174" y="38" width="141" height="198" as="geometry" />
        </mxCell>
        <mxCell id="i6rqu2mOP690m8pZzZaT-7" value="tab1" style="rounded=0;whiteSpace=wrap;html=1;fillColor=#dae8fc;strokeColor=#6c8ebf;" vertex="1" parent="1">
          <mxGeometry x="180" y="53" width="35" height="16" as="geometry" />
        </mxCell>
        <mxCell id="i6rqu2mOP690m8pZzZaT-8" value="tab2" style="rounded=0;whiteSpace=wrap;html=1;" vertex="1" parent="1">
          <mxGeometry x="220" y="53" width="35" height="16" as="geometry" />
        </mxCell>
        <mxCell id="i6rqu2mOP690m8pZzZaT-9" value="tab3" style="rounded=0;whiteSpace=wrap;html=1;" vertex="1" parent="1">
          <mxGeometry x="260" y="53" width="35" height="16" as="geometry" />
        </mxCell>
        <mxCell id="i6rqu2mOP690m8pZzZaT-10" value="commentItem_1" style="rounded=0;whiteSpace=wrap;html=1;" vertex="1" parent="1">
          <mxGeometry x="184" y="77" width="118" height="21" as="geometry" />
        </mxCell>
        <mxCell id="i6rqu2mOP690m8pZzZaT-11" value="commentItem_2" style="rounded=0;whiteSpace=wrap;html=1;" vertex="1" parent="1">
          <mxGeometry x="184" y="108" width="118" height="21" as="geometry" />
        </mxCell>
        <mxCell id="i6rqu2mOP690m8pZzZaT-12" value="commentItem_3" style="rounded=0;whiteSpace=wrap;html=1;" vertex="1" parent="1">
          <mxGeometry x="184" y="137" width="118" height="21" as="geometry" />
        </mxCell>
        <mxCell id="i6rqu2mOP690m8pZzZaT-13" style="edgeStyle=orthogonalEdgeStyle;rounded=0;orthogonalLoop=1;jettySize=auto;html=1;exitX=1;exitY=0.5;exitDx=0;exitDy=0;entryX=0;entryY=0.5;entryDx=0;entryDy=0;dashed=1;endArrow=classic;endFill=1;strokeWidth=1;" edge="1" parent="1" source="i6rqu2mOP690m8pZzZaT-14" target="i6rqu2mOP690m8pZzZaT-15">
          <mxGeometry relative="1" as="geometry" />
        </mxCell>
        <mxCell id="i6rqu2mOP690m8pZzZaT-14" value="commentItem_n" style="rounded=0;whiteSpace=wrap;html=1;" vertex="1" parent="1">
          <mxGeometry x="184" y="180" width="118" height="21" as="geometry" />
        </mxCell>
        <mxCell id="i6rqu2mOP690m8pZzZaT-15" value="cursor" style="text;html=1;strokeColor=none;fillColor=none;align=center;verticalAlign=middle;whiteSpace=wrap;rounded=0;" vertex="1" parent="1">
          <mxGeometry x="332" y="179" width="41" height="22" as="geometry" />
        </mxCell>
        <mxCell id="i6rqu2mOP690m8pZzZaT-16" value="" style="shape=curlyBracket;whiteSpace=wrap;html=1;rounded=1;flipH=1;size=0.5;" vertex="1" parent="1">
          <mxGeometry x="302.5" y="84" width="41.5" height="102" as="geometry" />
        </mxCell>
        <mxCell id="i6rqu2mOP690m8pZzZaT-17" value="commentList" style="text;html=1;strokeColor=none;fillColor=none;align=center;verticalAlign=middle;whiteSpace=wrap;rounded=0;" vertex="1" parent="1">
          <mxGeometry x="348" y="120" width="60" height="30" as="geometry" />
        </mxCell>
        <mxCell id="i6rqu2mOP690m8pZzZaT-18" value="" style="endArrow=none;dashed=1;html=1;rounded=0;strokeWidth=1;" edge="1" parent="1">
          <mxGeometry width="50" height="50" relative="1" as="geometry">
            <mxPoint x="242.5999999999999" y="176.5" as="sourcePoint" />
            <mxPoint x="242.5999999999999" y="162.5" as="targetPoint" />
          </mxGeometry>
        </mxCell>
        <mxCell id="i6rqu2mOP690m8pZzZaT-19" value="" style="rounded=0;whiteSpace=wrap;html=1;" vertex="1" parent="1">
          <mxGeometry x="424" y="35" width="141" height="198" as="geometry" />
        </mxCell>
        <mxCell id="i6rqu2mOP690m8pZzZaT-20" value="tab1" style="rounded=0;whiteSpace=wrap;html=1;fillColor=#dae8fc;strokeColor=#6c8ebf;" vertex="1" parent="1">
          <mxGeometry x="430" y="50" width="35" height="16" as="geometry" />
        </mxCell>
        <mxCell id="i6rqu2mOP690m8pZzZaT-21" value="tab2" style="rounded=0;whiteSpace=wrap;html=1;" vertex="1" parent="1">
          <mxGeometry x="470" y="50" width="35" height="16" as="geometry" />
        </mxCell>
        <mxCell id="i6rqu2mOP690m8pZzZaT-22" value="tab3" style="rounded=0;whiteSpace=wrap;html=1;" vertex="1" parent="1">
          <mxGeometry x="510" y="50" width="35" height="16" as="geometry" />
        </mxCell>
        <mxCell id="i6rqu2mOP690m8pZzZaT-23" value="commentItem_1" style="rounded=0;whiteSpace=wrap;html=1;" vertex="1" parent="1">
          <mxGeometry x="434" y="74" width="118" height="21" as="geometry" />
        </mxCell>
        <mxCell id="i6rqu2mOP690m8pZzZaT-24" value="commentItem_2" style="rounded=0;whiteSpace=wrap;html=1;" vertex="1" parent="1">
          <mxGeometry x="434" y="103" width="118" height="21" as="geometry" />
        </mxCell>
        <mxCell id="i6rqu2mOP690m8pZzZaT-25" value="commentItem_3" style="rounded=0;whiteSpace=wrap;html=1;" vertex="1" parent="1">
          <mxGeometry x="434" y="134" width="118" height="21" as="geometry" />
        </mxCell>
        <mxCell id="i6rqu2mOP690m8pZzZaT-26" value="commentItem_n" style="rounded=0;whiteSpace=wrap;html=1;" vertex="1" parent="1">
          <mxGeometry x="434.5" y="181" width="118" height="21" as="geometry" />
        </mxCell>
        <mxCell id="i6rqu2mOP690m8pZzZaT-27" value="cursor" style="text;html=1;strokeColor=none;fillColor=none;align=center;verticalAlign=middle;whiteSpace=wrap;rounded=0;" vertex="1" parent="1">
          <mxGeometry x="582" y="298" width="41" height="22" as="geometry" />
        </mxCell>
        <mxCell id="i6rqu2mOP690m8pZzZaT-28" value="" style="shape=curlyBracket;whiteSpace=wrap;html=1;rounded=1;flipH=1;size=0.5;" vertex="1" parent="1">
          <mxGeometry x="552.5" y="81" width="35.5" height="112" as="geometry" />
        </mxCell>
        <mxCell id="i6rqu2mOP690m8pZzZaT-29" value="" style="endArrow=none;dashed=1;html=1;rounded=0;strokeWidth=1;" edge="1" parent="1">
          <mxGeometry width="50" height="50" relative="1" as="geometry">
            <mxPoint x="494.0999999999999" y="177" as="sourcePoint" />
            <mxPoint x="494.0999999999999" y="163" as="targetPoint" />
          </mxGeometry>
        </mxCell>
        <mxCell id="i6rqu2mOP690m8pZzZaT-30" value="" style="rounded=0;whiteSpace=wrap;html=1;dashed=1;" vertex="1" parent="1">
          <mxGeometry x="424" y="233" width="141" height="92" as="geometry" />
        </mxCell>
        <mxCell id="i6rqu2mOP690m8pZzZaT-31" value="commentItem_n+1" style="rounded=0;whiteSpace=wrap;html=1;" vertex="1" parent="1">
          <mxGeometry x="435.5" y="241" width="118" height="21" as="geometry" />
        </mxCell>
        <mxCell id="i6rqu2mOP690m8pZzZaT-32" value="commentItem_n+2" style="rounded=0;whiteSpace=wrap;html=1;" vertex="1" parent="1">
          <mxGeometry x="435.5" y="271" width="118" height="21" as="geometry" />
        </mxCell>
        <mxCell id="i6rqu2mOP690m8pZzZaT-33" style="edgeStyle=orthogonalEdgeStyle;rounded=0;orthogonalLoop=1;jettySize=auto;html=1;exitX=1;exitY=0.5;exitDx=0;exitDy=0;dashed=1;endArrow=classic;endFill=1;strokeWidth=1;" edge="1" parent="1" source="i6rqu2mOP690m8pZzZaT-34">
          <mxGeometry relative="1" as="geometry">
            <mxPoint x="582" y="309.5999999999999" as="targetPoint" />
          </mxGeometry>
        </mxCell>
        <mxCell id="i6rqu2mOP690m8pZzZaT-34" value="commentItem_n+3" style="rounded=0;whiteSpace=wrap;html=1;" vertex="1" parent="1">
          <mxGeometry x="435.5" y="299" width="118" height="21" as="geometry" />
        </mxCell>
        <mxCell id="i6rqu2mOP690m8pZzZaT-35" value="commentList" style="text;html=1;strokeColor=none;fillColor=none;align=center;verticalAlign=middle;whiteSpace=wrap;rounded=0;" vertex="1" parent="1">
          <mxGeometry x="598" y="122" width="60" height="30" as="geometry" />
        </mxCell>
        <mxCell id="i6rqu2mOP690m8pZzZaT-36" value="" style="shape=curlyBracket;whiteSpace=wrap;html=1;rounded=1;flipH=1;strokeWidth=1;fillColor=none;" vertex="1" parent="1">
          <mxGeometry x="553.5" y="247" width="34.5" height="60" as="geometry" />
        </mxCell>
        <mxCell id="i6rqu2mOP690m8pZzZaT-37" value="stoppedCommentList" style="text;html=1;strokeColor=none;fillColor=none;align=center;verticalAlign=middle;whiteSpace=wrap;rounded=0;" vertex="1" parent="1">
          <mxGeometry x="590" y="265" width="114" height="24" as="geometry" />
        </mxCell>
        <mxCell id="i6rqu2mOP690m8pZzZaT-38" value="newCommentNotice" style="rounded=0;whiteSpace=wrap;html=1;fillColor=#ffe6cc;strokeColor=#d79b00;" vertex="1" parent="1">
          <mxGeometry x="424" y="209" width="141" height="24" as="geometry" />
        </mxCell>
        <mxCell id="i6rqu2mOP690m8pZzZaT-40" value="case1" style="text;html=1;strokeColor=none;fillColor=none;align=center;verticalAlign=middle;whiteSpace=wrap;rounded=0;" vertex="1" parent="1">
          <mxGeometry x="49" y="6" width="61" height="30" as="geometry" />
        </mxCell>
        <mxCell id="i6rqu2mOP690m8pZzZaT-41" value="case2" style="text;html=1;strokeColor=none;fillColor=none;align=center;verticalAlign=middle;whiteSpace=wrap;rounded=0;" vertex="1" parent="1">
          <mxGeometry x="212.5" y="6" width="61" height="30" as="geometry" />
        </mxCell>
        <mxCell id="i6rqu2mOP690m8pZzZaT-42" value="case3" style="text;html=1;strokeColor=none;fillColor=none;align=center;verticalAlign=middle;whiteSpace=wrap;rounded=0;" vertex="1" parent="1">
          <mxGeometry x="463" y="1" width="61" height="30" as="geometry" />
        </mxCell>
        <mxCell id="i6rqu2mOP690m8pZzZaT-70" style="edgeStyle=orthogonalEdgeStyle;rounded=0;orthogonalLoop=1;jettySize=auto;html=1;exitX=1;exitY=0.5;exitDx=0;exitDy=0;entryX=0;entryY=0.5;entryDx=0;entryDy=0;fontSize=10;endArrow=classic;endFill=1;strokeWidth=1;" edge="1" parent="1" source="i6rqu2mOP690m8pZzZaT-71">
          <mxGeometry relative="1" as="geometry">
            <mxPoint x="282" y="505" as="targetPoint" />
          </mxGeometry>
        </mxCell>
        <mxCell id="i6rqu2mOP690m8pZzZaT-71" value="切换至重要评论tab" style="rounded=0;whiteSpace=wrap;html=1;fontSize=10;strokeWidth=1;fillColor=none;" vertex="1" parent="1">
          <mxGeometry x="156" y="487" width="78" height="36" as="geometry" />
        </mxCell>
        <mxCell id="i6rqu2mOP690m8pZzZaT-72" style="edgeStyle=orthogonalEdgeStyle;rounded=0;orthogonalLoop=1;jettySize=auto;html=1;exitX=0.5;exitY=0;exitDx=0;exitDy=0;entryX=0.5;entryY=1;entryDx=0;entryDy=0;fontSize=10;endArrow=classic;endFill=1;strokeWidth=1;" edge="1" parent="1" source="i6rqu2mOP690m8pZzZaT-76" target="i6rqu2mOP690m8pZzZaT-79">
          <mxGeometry relative="1" as="geometry" />
        </mxCell>
        <mxCell id="i6rqu2mOP690m8pZzZaT-73" value="False" style="edgeLabel;html=1;align=center;verticalAlign=middle;resizable=0;points=[];fontSize=10;" vertex="1" connectable="0" parent="i6rqu2mOP690m8pZzZaT-72">
          <mxGeometry x="-0.1807" relative="1" as="geometry">
            <mxPoint as="offset" />
          </mxGeometry>
        </mxCell>
        <mxCell id="i6rqu2mOP690m8pZzZaT-74" style="edgeStyle=orthogonalEdgeStyle;rounded=0;orthogonalLoop=1;jettySize=auto;html=1;exitX=0.5;exitY=1;exitDx=0;exitDy=0;entryX=0.5;entryY=0;entryDx=0;entryDy=0;fontSize=10;endArrow=classic;endFill=1;strokeWidth=1;" edge="1" parent="1" source="i6rqu2mOP690m8pZzZaT-76" target="i6rqu2mOP690m8pZzZaT-86">
          <mxGeometry relative="1" as="geometry" />
        </mxCell>
        <mxCell id="i6rqu2mOP690m8pZzZaT-75" value="True" style="edgeLabel;html=1;align=center;verticalAlign=middle;resizable=0;points=[];fontSize=10;" vertex="1" connectable="0" parent="i6rqu2mOP690m8pZzZaT-74">
          <mxGeometry x="-0.0123" y="2" relative="1" as="geometry">
            <mxPoint as="offset" />
          </mxGeometry>
        </mxCell>
        <mxCell id="i6rqu2mOP690m8pZzZaT-76" value="commentList.&lt;br&gt;length&amp;gt;0" style="rhombus;whiteSpace=wrap;html=1;rounded=0;fontSize=10;strokeWidth=1;fillColor=none;" vertex="1" parent="1">
          <mxGeometry x="461" y="469.5" width="102" height="71" as="geometry" />
        </mxCell>
        <mxCell id="i6rqu2mOP690m8pZzZaT-77" style="edgeStyle=orthogonalEdgeStyle;rounded=0;orthogonalLoop=1;jettySize=auto;html=1;fontSize=10;endArrow=classic;endFill=1;strokeWidth=1;" edge="1" parent="1">
          <mxGeometry relative="1" as="geometry">
            <mxPoint x="180" y="708" as="sourcePoint" />
            <mxPoint x="180" y="708" as="targetPoint" />
          </mxGeometry>
        </mxCell>
        <mxCell id="i6rqu2mOP690m8pZzZaT-78" style="edgeStyle=orthogonalEdgeStyle;rounded=0;orthogonalLoop=1;jettySize=auto;html=1;exitX=0.5;exitY=0;exitDx=0;exitDy=0;fontSize=10;endArrow=classic;endFill=1;strokeWidth=1;" edge="1" parent="1" source="i6rqu2mOP690m8pZzZaT-79" target="i6rqu2mOP690m8pZzZaT-81">
          <mxGeometry relative="1" as="geometry" />
        </mxCell>
        <mxCell id="i6rqu2mOP690m8pZzZaT-79" value="case1" style="rounded=0;whiteSpace=wrap;html=1;fontSize=10;strokeWidth=1;fillColor=none;" vertex="1" parent="1">
          <mxGeometry x="477.5" y="392" width="69" height="36" as="geometry" />
        </mxCell>
        <mxCell id="i6rqu2mOP690m8pZzZaT-80" style="edgeStyle=orthogonalEdgeStyle;rounded=0;orthogonalLoop=1;jettySize=auto;html=1;exitX=1;exitY=0.5;exitDx=0;exitDy=0;entryX=0;entryY=0.5;entryDx=0;entryDy=0;fontSize=10;endArrow=classic;endFill=1;strokeWidth=1;" edge="1" parent="1" source="i6rqu2mOP690m8pZzZaT-81" target="i6rqu2mOP690m8pZzZaT-76">
          <mxGeometry relative="1" as="geometry">
            <mxPoint x="407" y="505" as="sourcePoint" />
          </mxGeometry>
        </mxCell>
        <mxCell id="i6rqu2mOP690m8pZzZaT-81" value="FetchComment" style="ellipse;whiteSpace=wrap;html=1;aspect=fixed;rounded=0;fontSize=10;strokeWidth=1;fillColor=none;" vertex="1" parent="1">
          <mxGeometry x="282" y="460" width="90" height="90" as="geometry" />
        </mxCell>
        <mxCell id="i6rqu2mOP690m8pZzZaT-82" style="edgeStyle=orthogonalEdgeStyle;rounded=0;orthogonalLoop=1;jettySize=auto;html=1;exitX=0.5;exitY=1;exitDx=0;exitDy=0;fontSize=10;endArrow=classic;endFill=1;strokeWidth=1;" edge="1" parent="1" source="i6rqu2mOP690m8pZzZaT-86">
          <mxGeometry relative="1" as="geometry">
            <mxPoint x="514" y="725" as="targetPoint" />
          </mxGeometry>
        </mxCell>
        <mxCell id="i6rqu2mOP690m8pZzZaT-83" value="True" style="edgeLabel;html=1;align=center;verticalAlign=middle;resizable=0;points=[];fontSize=10;" vertex="1" connectable="0" parent="i6rqu2mOP690m8pZzZaT-82">
          <mxGeometry x="-0.262" relative="1" as="geometry">
            <mxPoint as="offset" />
          </mxGeometry>
        </mxCell>
        <mxCell id="i6rqu2mOP690m8pZzZaT-84" style="edgeStyle=orthogonalEdgeStyle;rounded=0;orthogonalLoop=1;jettySize=auto;html=1;exitX=0;exitY=0.5;exitDx=0;exitDy=0;fontSize=10;endArrow=classic;endFill=1;strokeWidth=1;" edge="1" parent="1" source="i6rqu2mOP690m8pZzZaT-86">
          <mxGeometry relative="1" as="geometry">
            <mxPoint x="413" y="626" as="targetPoint" />
          </mxGeometry>
        </mxCell>
        <mxCell id="i6rqu2mOP690m8pZzZaT-85" value="False" style="edgeLabel;html=1;align=center;verticalAlign=middle;resizable=0;points=[];fontSize=10;" vertex="1" connectable="0" parent="i6rqu2mOP690m8pZzZaT-84">
          <mxGeometry x="-0.2083" relative="1" as="geometry">
            <mxPoint as="offset" />
          </mxGeometry>
        </mxCell>
        <mxCell id="i6rqu2mOP690m8pZzZaT-86" value="评论满屏且&lt;br&gt;处于停滞状态" style="rhombus;whiteSpace=wrap;html=1;rounded=0;fontSize=10;strokeWidth=1;fillColor=none;" vertex="1" parent="1">
          <mxGeometry x="461" y="581" width="105.5" height="90" as="geometry" />
        </mxCell>
        <mxCell id="i6rqu2mOP690m8pZzZaT-87" style="edgeStyle=orthogonalEdgeStyle;rounded=0;orthogonalLoop=1;jettySize=auto;html=1;exitX=0;exitY=0.5;exitDx=0;exitDy=0;fontSize=10;endArrow=classic;endFill=1;strokeWidth=1;" edge="1" parent="1" source="i6rqu2mOP690m8pZzZaT-88">
          <mxGeometry relative="1" as="geometry">
            <mxPoint x="324" y="551" as="targetPoint" />
          </mxGeometry>
        </mxCell>
        <mxCell id="i6rqu2mOP690m8pZzZaT-88" value="case2" style="rounded=0;whiteSpace=wrap;html=1;fontSize=10;strokeWidth=1;fillColor=none;" vertex="1" parent="1">
          <mxGeometry x="360" y="611" width="54" height="30" as="geometry" />
        </mxCell>
        <mxCell id="i6rqu2mOP690m8pZzZaT-89" style="edgeStyle=orthogonalEdgeStyle;rounded=0;orthogonalLoop=1;jettySize=auto;html=1;exitX=0.5;exitY=1;exitDx=0;exitDy=0;fontSize=10;endArrow=classic;endFill=1;strokeWidth=1;" edge="1" parent="1" source="i6rqu2mOP690m8pZzZaT-90">
          <mxGeometry relative="1" as="geometry">
            <mxPoint x="324" y="551" as="targetPoint" />
          </mxGeometry>
        </mxCell>
        <mxCell id="i6rqu2mOP690m8pZzZaT-90" value="case3" style="rounded=0;whiteSpace=wrap;html=1;fontSize=10;strokeWidth=1;fillColor=none;" vertex="1" parent="1">
          <mxGeometry x="480.75" y="725" width="66" height="33" as="geometry" />
        </mxCell>
      </root>
    </mxGraphModel>
  </diagram>
</mxfile>
